<svg width="136" height="71" viewBox="0 0 136 71" fill="none" xmlns="http://www.w3.org/2000/svg">
<g filter="url(#filter0_d_72_4104)">
<rect x="2" width="130" height="65" rx="8" fill="#232E37" fill-opacity="0.64" shape-rendering="crispEdges"/>
<rect x="4" y="2" width="126" height="61" rx="6" fill="white"/>
<path d="M17 32.5L19.1111 30.3889M19.1111 30.3889L26.5 23L33.8889 30.3889M19.1111 30.3889V40.9444C19.1111 41.2244 19.2223 41.4929 19.4203 41.6908C19.6182 41.8888 19.8867 42 20.1667 42H23.3333M33.8889 30.3889L36 32.5M33.8889 30.3889V40.9444C33.8889 41.2244 33.7777 41.4929 33.5797 41.6908C33.3818 41.8888 33.1133 42 32.8333 42H29.6667M23.3333 42C23.6133 42 23.8818 41.8888 24.0797 41.6908C24.2777 41.4929 24.3889 41.2244 24.3889 40.9444V36.7222C24.3889 36.4423 24.5001 36.1738 24.6981 35.9758C24.896 35.7779 25.1645 35.6667 25.4444 35.6667H27.5556C27.8355 35.6667 28.104 35.7779 28.3019 35.9758C28.4999 36.1738 28.6111 36.4423 28.6111 36.7222V40.9444C28.6111 41.2244 28.7223 41.4929 28.9203 41.6908C29.1182 41.8888 29.3867 42 29.6667 42M23.3333 42H29.6667" stroke="#5A5A5A" stroke-width="2" stroke-linecap="round" stroke-linejoin="round"/>
<path d="M49.9775 41.0254C49.6084 41.0254 49.3486 40.9092 49.1982 40.6768C49.0615 40.458 48.9932 40.1777 48.9932 39.8359V24.2705C48.9932 23.9287 49.0615 23.6416 49.1982 23.4092C49.3486 23.1768 49.6084 23.0605 49.9775 23.0605C50.3467 23.0605 50.5996 23.1836 50.7363 23.4297C50.873 23.6621 50.9414 23.9424 50.9414 24.2705V28.4746C51.1875 28.5703 51.5771 28.7344 52.1104 28.9668C52.6436 29.1992 53.2451 29.4727 53.915 29.7871C54.585 30.1016 55.2686 30.4434 55.9658 30.8125C56.6631 31.1816 57.3057 31.5576 57.8936 31.9404C58.4814 32.3096 58.9531 32.665 59.3086 33.0068C59.6777 33.3486 59.8623 33.6494 59.8623 33.9092C59.8623 34.251 59.7666 34.5107 59.5752 34.6885C59.3838 34.8525 59.1172 34.9346 58.7754 34.9346C58.5566 34.9346 58.3242 34.8525 58.0781 34.6885C57.832 34.5244 57.627 34.374 57.4629 34.2373C56.4785 33.4307 55.4463 32.7061 54.3662 32.0635C53.2861 31.4072 52.1445 30.8535 50.9414 30.4023V39.8359C50.9414 40.1641 50.873 40.4443 50.7363 40.6768C50.5996 40.9092 50.3467 41.0254 49.9775 41.0254ZM74.6681 33.1914C74.4357 33.1914 74.2443 33.1094 74.0939 32.9453C73.9572 32.7812 73.8478 32.6035 73.7658 32.4121C73.6838 32.2207 73.5607 31.9678 73.3966 31.6533C73.2326 31.3252 73.0548 30.9834 72.8634 30.6279C72.6857 30.2725 72.5285 29.9512 72.3918 29.6641C72.2687 29.3633 72.2072 29.1514 72.2072 29.0283C72.2072 28.7549 72.2824 28.5635 72.4328 28.4541C72.5832 28.3311 72.7882 28.2695 73.048 28.2695C73.2257 28.2695 73.424 28.3857 73.6427 28.6182C73.8615 28.8369 74.0802 29.124 74.299 29.4795C74.5177 29.835 74.7228 30.2109 74.9142 30.6074C75.1056 30.9902 75.256 31.3457 75.3654 31.6738C75.4884 32.002 75.55 32.248 75.55 32.4121C75.55 32.6855 75.4679 32.8838 75.3039 33.0068C75.1535 33.1299 74.9416 33.1914 74.6681 33.1914ZM71.5509 40.9844C70.9767 40.9844 70.6896 40.6768 70.6896 40.0615C70.6896 39.7881 70.8195 39.5762 71.0793 39.4258C71.3527 39.2754 71.592 39.166 71.797 39.0977C72.549 38.8242 73.2121 38.5303 73.7863 38.2158C74.3742 37.9014 74.9142 37.5254 75.4064 37.0879C75.9123 36.6504 76.3976 36.1104 76.8625 35.4678C77.4777 34.6201 77.9289 33.7725 78.216 32.9248C78.5031 32.0771 78.7355 31.1475 78.9132 30.1357C78.9543 29.9443 79.0089 29.7188 79.0773 29.459C79.1457 29.1992 79.2482 28.9736 79.3849 28.7822C79.5353 28.5908 79.7404 28.4951 80.0002 28.4951C80.6291 28.4951 80.9435 28.8096 80.9435 29.4385C80.9435 29.7119 80.8957 30.0537 80.8 30.4639C80.7179 30.874 80.6154 31.2842 80.4923 31.6943C80.383 32.0908 80.2873 32.4189 80.2052 32.6787C79.713 34.251 79.0295 35.625 78.1545 36.8008C77.2931 37.9766 76.1447 38.9746 74.7091 39.7949C74.4357 39.959 74.1144 40.1299 73.7453 40.3076C73.3761 40.499 73.0002 40.6562 72.6173 40.7793C72.2482 40.916 71.8927 40.9844 71.5509 40.9844ZM70.5871 33.7861C70.341 33.7861 70.1427 33.6973 69.9923 33.5195C69.8556 33.3281 69.7394 33.1367 69.6437 32.9453C69.5617 32.7812 69.425 32.542 69.2336 32.2275C69.0558 31.8994 68.8644 31.5576 68.6593 31.2021C68.4679 30.833 68.297 30.5049 68.1466 30.2178C68.0099 29.917 67.9416 29.7119 67.9416 29.6025C67.9416 29.3291 68.0168 29.1309 68.1671 29.0078C68.3312 28.8848 68.5431 28.8232 68.8029 28.8232C68.967 28.8232 69.1652 28.9395 69.3976 29.1719C69.63 29.3906 69.8625 29.6777 70.0949 30.0332C70.341 30.3887 70.5666 30.7578 70.7716 31.1406C70.9904 31.5234 71.1613 31.8789 71.2843 32.207C71.4211 32.5215 71.4894 32.7539 71.4894 32.9043C71.4894 33.4922 71.1886 33.7861 70.5871 33.7861ZM103.727 26.6084C103.139 26.6084 102.633 26.4033 102.209 25.9932C101.799 25.5693 101.594 25.0635 101.594 24.4756C101.594 23.874 101.806 23.375 102.23 22.9785C102.654 22.5684 103.159 22.3633 103.747 22.3633C104.322 22.3633 104.814 22.5752 105.224 22.999C105.634 23.4092 105.839 23.9014 105.839 24.4756C105.839 25.0635 105.634 25.5693 105.224 25.9932C104.827 26.4033 104.328 26.6084 103.727 26.6084ZM103.727 25.583C104.451 25.583 104.814 25.2139 104.814 24.4756C104.814 23.751 104.445 23.3887 103.706 23.3887C102.982 23.3887 102.619 23.751 102.619 24.4756C102.619 25.2139 102.989 25.583 103.727 25.583ZM90.6839 41.0869C90.0003 41.0869 89.6585 40.752 89.6585 40.082C89.6585 39.7812 89.7747 39.5557 90.0071 39.4053C90.2396 39.2549 90.5062 39.1387 90.807 39.0566C91.1214 38.9746 91.3812 38.9062 91.5863 38.8516C94.0745 38.127 96.1321 36.9102 97.7591 35.2012C99.3997 33.4785 100.589 31.3936 101.327 28.9463C101.382 28.7959 101.43 28.6387 101.471 28.4746C101.512 28.2969 101.533 28.126 101.533 27.9619C101.533 27.6885 101.444 27.5039 101.266 27.4082C101.102 27.3125 100.904 27.2646 100.671 27.2646H88.9202C88.5921 27.2646 88.3118 27.1963 88.0794 27.0596C87.8607 26.9092 87.7513 26.6562 87.7513 26.3008C87.7513 25.9453 87.8607 25.6992 88.0794 25.5625C88.3118 25.4121 88.5921 25.3369 88.9202 25.3369H101.204C101.601 26.5127 102.408 27.1074 103.624 27.1211C103.624 27.832 103.494 28.5908 103.235 29.3975C102.989 30.2041 102.729 30.9355 102.455 31.5918C101.662 33.4922 100.637 35.1055 99.3792 36.4316C98.1214 37.7441 96.5628 38.8447 94.7034 39.7334C94.3616 39.8975 93.9446 40.082 93.4525 40.2871C92.9739 40.5059 92.4886 40.6904 91.9964 40.8408C91.5042 41.0049 91.0667 41.0869 90.6839 41.0869Z" fill="#5A5A5A"/>
</g>
<defs>
<filter id="filter0_d_72_4104" x="0" y="0" width="136" height="71" filterUnits="userSpaceOnUse" color-interpolation-filters="sRGB">
<feFlood flood-opacity="0" result="BackgroundImageFix"/>
<feColorMatrix in="SourceAlpha" type="matrix" values="0 0 0 0 0 0 0 0 0 0 0 0 0 0 0 0 0 0 127 0" result="hardAlpha"/>
<feOffset dx="1" dy="3"/>
<feGaussianBlur stdDeviation="1.5"/>
<feComposite in2="hardAlpha" operator="out"/>
<feColorMatrix type="matrix" values="0 0 0 0 0 0 0 0 0 0 0 0 0 0 0 0 0 0 0.32 0"/>
<feBlend mode="normal" in2="BackgroundImageFix" result="effect1_dropShadow_72_4104"/>
<feBlend mode="normal" in="SourceGraphic" in2="effect1_dropShadow_72_4104" result="shape"/>
</filter>
</defs>
</svg>
